<?xml version="1.0" encoding="utf-8"?>
<!-- Generator: Adobe Illustrator 15.0.0, SVG Export Plug-In . SVG Version: 6.00 Build 0)  -->
<!DOCTYPE svg PUBLIC "-//W3C//DTD SVG 1.1//EN" "http://www.w3.org/Graphics/SVG/1.1/DTD/svg11.dtd">
<svg version="1.1" id="Layer_1" xmlns="http://www.w3.org/2000/svg" xmlns:xlink="http://www.w3.org/1999/xlink" x="0px" y="0px"
	 width="144px" height="75px" viewBox="0 0 144 75" enable-background="new 0 0 144 75" xml:space="preserve">
<g>
	<path fill="#FFFFFF" d="M0.538,36.458c0-21.677,14.488-34.873,33.91-34.873c20.154,0,36.719,19.498,36.98,36.67
		C71.766,60.772,55.38,73.064,37.61,73.317C17.136,73.61,0.538,56.815,0.538,36.458"/>
</g>
<g>
	<defs>
		<path id="SVGID_1_" d="M48.795,39.059c-0.007,0.252-0.022,0.5-0.044,0.744l20.551,0.934c0.035-0.672,0.051-1.354,0.051-2.046
			c0-0.213-0.002-0.425-0.005-0.64c-0.009-0.587-0.038-1.178-0.087-1.77L48.795,39.059z M48.235,35.729
			c0.103,0.274,0.192,0.551,0.268,0.828l19.273-7.378c-0.49-1.474-1.089-2.937-1.787-4.37L48.235,35.729z M3.649,27.406
			c4.285,1.456,20.298,6.716,26.518,8.74c0.063-0.38,0.146-0.748,0.248-1.101C23.42,31.514,8.873,24.229,5.204,22.37
			C4.572,23.96,4.05,25.641,3.649,27.406 M46.293,32.466c0.212,0.249,0.414,0.506,0.604,0.77l14.925-15.153
			c-0.979-1.278-2.04-2.506-3.174-3.668L46.293,32.466z M7.672,17.477c4.91,3.282,19.706,12.648,23.782,15.229
			c0.161-0.251,0.331-0.49,0.516-0.719c-3.782-3.385-16.983-15.029-21.151-18.662C9.659,14.596,8.606,15.981,7.672,17.477
			 M43.716,30.243c0.26,0.161,0.514,0.333,0.76,0.517l8.731-20.996c-1.335-0.941-2.73-1.796-4.177-2.549L43.716,30.243z
			 M15.997,8.871l17.536,21.632c0.247-0.178,0.504-0.344,0.773-0.494L19.877,6.681C18.521,7.318,17.225,8.049,15.997,8.871
			 M26.179,4.553l10.538,24.541c0.301-0.067,0.61-0.121,0.924-0.161L30.439,3.867C28.982,4.011,27.56,4.242,26.179,4.553
			 M40.123,28.925c0.342,0.046,0.678,0.114,1.008,0.2L41.97,4.504C40.502,4.131,39,3.862,37.472,3.711L40.123,28.925z"/>
	</defs>
	<clipPath id="SVGID_2_">
		<use xlink:href="#SVGID_1_"  overflow="visible"/>
	</clipPath>
	<rect x="3.648" y="3.711" clip-path="url(#SVGID_2_)" fill="#0077BD" width="65.703" height="37.025"/>
	<path clip-path="url(#SVGID_2_)" fill="#0077BD" d="M-3.351,37.979C-3.782,13.279,13.998-4.839,36.364-2.489
		c22.366,2.351,40.846,24.28,41.277,48.98c0.432,24.7-17.35,42.818-39.714,40.468C15.561,84.608-2.919,62.679-3.351,37.979"/>
	<path clip-path="url(#SVGID_2_)" fill="#0079BE" d="M-3.086,37.999C-3.515,13.458,14.15-4.543,36.372-2.207
		c22.222,2.336,40.582,24.124,41.01,48.664C77.81,70.999,60.144,89,37.923,86.664C15.703,84.327-2.658,62.541-3.086,37.999"/>
	<path clip-path="url(#SVGID_2_)" fill="#007BC0" d="M-2.817,38.042C-3.243,13.66,14.307-4.224,36.384-1.903
		s40.318,23.966,40.745,48.349c0.425,24.382-17.127,42.265-39.203,39.944C15.849,84.069-2.393,62.423-2.817,38.042"/>
	<path clip-path="url(#SVGID_2_)" fill="#007DC1" d="M-2.581,38.057C-3.004,13.835,14.432-3.932,36.364-1.626
		s40.054,23.81,40.478,48.031c0.424,24.223-17.013,41.989-38.945,39.684C15.965,83.782-2.158,62.278-2.581,38.057"/>
	<path clip-path="url(#SVGID_2_)" fill="#007FC3" d="M-2.317,38.099C-2.738,14.037,14.584-3.613,36.372-1.323
		C58.159,0.968,76.162,22.33,76.583,46.393c0.42,24.062-16.901,41.711-38.689,39.421C16.106,83.524-1.897,62.161-2.317,38.099"/>
	<path clip-path="url(#SVGID_2_)" fill="#0082C4" d="M-2.048,38.115C-2.466,14.211,14.741-3.322,36.385-1.046
		c21.643,2.274,39.526,23.495,39.944,47.398c0.417,23.903-16.79,41.436-38.432,39.161C16.252,83.238-1.63,62.017-2.048,38.115"/>
	<path clip-path="url(#SVGID_2_)" fill="#0084C5" d="M-1.785,38.13C-2.199,14.386,14.893-3.03,36.391-0.77
		c21.5,2.26,39.264,23.339,39.677,47.083c0.416,23.743-16.676,41.159-38.175,38.899C16.394,82.952-1.37,61.874-1.785,38.13"/>
	<path clip-path="url(#SVGID_2_)" fill="#0086C7" d="M-1.52,38.177C-1.932,14.593,15.044-2.706,36.399-0.46
		C57.752,1.784,75.398,22.721,75.81,46.306c0.412,23.583-16.564,40.882-37.92,38.638C16.537,82.698-1.108,61.761-1.52,38.177"/>
	<path clip-path="url(#SVGID_2_)" fill="#0089C8" d="M-1.251,38.192C-1.661,14.768,15.202-2.414,36.411-0.185
		c21.21,2.229,38.736,23.025,39.145,46.45c0.408,23.425-16.454,40.606-37.664,38.376C16.682,82.413-0.843,61.617-1.251,38.192"/>
	<path clip-path="url(#SVGID_2_)" fill="#008BCA" d="M-0.988,38.235C-1.394,14.97,15.353-2.095,36.418,0.119
		c21.066,2.214,38.472,22.869,38.878,46.134c0.406,23.265-16.342,40.329-37.407,38.114C16.824,82.154-0.581,61.5-0.988,38.235"/>
	<path clip-path="url(#SVGID_2_)" fill="#0B8DCB" d="M-0.751,38.25C-1.154,15.145,15.479-1.803,36.399,0.396
		c20.922,2.2,38.208,22.712,38.612,45.818s-16.229,40.053-37.15,37.854C16.94,81.868-0.347,61.355-0.751,38.25"/>
	<path clip-path="url(#SVGID_2_)" fill="#2390CD" d="M-0.481,38.265C-0.883,15.319,15.635-1.511,36.411,0.672
		c20.778,2.184,37.945,22.555,38.345,45.501C75.158,69.12,58.64,85.951,37.864,83.766C17.086,81.582-0.081,61.211-0.481,38.265"/>
	<path clip-path="url(#SVGID_2_)" fill="#3193CE" d="M-0.217,38.308C-0.616,15.521,15.787-1.193,36.418,0.977
		C57.051,3.145,74.1,23.375,74.497,46.16c0.398,22.787-16.003,39.501-36.637,37.332C17.228,81.323,0.18,61.094-0.217,38.308"/>
	<path clip-path="url(#SVGID_2_)" fill="#3C95D0" d="M0.046,38.328C-0.35,15.701,15.938-0.896,36.427,1.258
		C56.915,3.411,73.843,23.5,74.237,46.126c0.396,22.627-15.892,39.224-36.38,37.07C17.37,81.042,0.441,60.955,0.046,38.328"/>
	<path clip-path="url(#SVGID_2_)" fill="#4598D1" d="M0.31,38.371C-0.082,15.903,16.09-0.577,36.434,1.561
		C56.778,3.7,73.585,23.646,73.979,46.113c0.392,22.468-15.78,38.947-36.124,36.809C17.512,80.784,0.703,60.838,0.31,38.371"/>
	<path clip-path="url(#SVGID_2_)" fill="#4F9BD3" d="M0.579,38.385C0.189,16.077,16.247-0.285,36.447,1.837
		c20.198,2.124,36.889,21.929,37.279,44.236c0.389,22.309-15.669,38.67-35.868,36.548C17.658,80.499,0.968,60.693,0.579,38.385"/>
	<path clip-path="url(#SVGID_2_)" fill="#579DD4" d="M0.815,38.427C0.428,16.279,16.372,0.034,36.427,2.141
		C56.48,4.25,73.051,23.913,73.438,46.062c0.388,22.148-15.556,38.394-35.61,36.286C17.773,80.239,1.202,60.576,0.815,38.427"/>
	<path clip-path="url(#SVGID_2_)" fill="#5EA0D5" d="M1.08,38.443C0.695,16.454,16.524,0.325,36.434,2.418
		c19.91,2.093,36.362,21.615,36.746,43.603c0.384,21.989-15.445,38.118-35.354,36.025C17.915,79.953,1.463,60.432,1.08,38.443"/>
	<path clip-path="url(#SVGID_2_)" fill="#66A3D7" d="M1.349,38.458C0.967,16.629,16.681,0.617,36.447,2.695
		c19.766,2.078,36.098,21.458,36.479,43.287c0.38,21.83-15.333,37.841-35.099,35.764C18.061,79.667,1.73,60.288,1.349,38.458"/>
	<path clip-path="url(#SVGID_2_)" fill="#6DA5D8" d="M1.612,38.505C1.233,16.835,16.833,0.941,36.455,3.004
		c19.621,2.062,35.833,21.301,36.212,42.971c0.377,21.67-15.221,37.564-34.842,35.501C18.203,79.414,1.991,60.175,1.612,38.505"/>
	<path clip-path="url(#SVGID_2_)" fill="#74A8D9" d="M1.876,38.521C1.5,17.01,16.984,1.232,36.461,3.28s35.571,21.145,35.945,42.656
		c0.376,21.509-15.108,37.287-34.585,35.24C18.345,79.128,2.253,60.032,1.876,38.521"/>
	<path clip-path="url(#SVGID_2_)" fill="#7BABDB" d="M2.145,38.563C1.772,17.213,17.141,1.552,36.475,3.584
		c19.331,2.032,35.306,20.987,35.678,42.338c0.373,21.351-14.997,37.011-34.329,34.979C18.493,78.869,2.518,59.914,2.145,38.563"/>
	<path clip-path="url(#SVGID_2_)" fill="#81AEDC" d="M2.408,38.579C2.039,17.387,17.294,1.843,36.481,3.86
		c19.188,2.018,35.042,20.831,35.413,42.022C72.265,67.074,57.009,82.617,37.821,80.6C18.633,78.583,2.778,59.77,2.408,38.579"/>
	<path clip-path="url(#SVGID_2_)" fill="#87B1DE" d="M2.646,38.621C2.279,17.589,17.418,2.163,36.461,4.164
		c19.044,2.002,34.78,20.674,35.146,41.706C71.976,66.9,56.835,82.328,37.792,80.326C18.749,78.325,3.014,59.653,2.646,38.621"/>
	<path clip-path="url(#SVGID_2_)" fill="#8DB4DF" d="M2.915,38.636C2.55,17.764,17.575,2.455,36.475,4.44
		C55.374,6.426,70.99,24.958,71.353,45.829c0.366,20.873-14.66,36.182-33.56,34.196C18.896,78.04,3.279,59.509,2.915,38.636"/>
	<path clip-path="url(#SVGID_2_)" fill="#93B7E1" d="M3.179,38.656C2.816,17.943,17.728,2.751,36.482,4.722
		c18.755,1.971,34.251,20.36,34.613,41.073c0.362,20.713-14.548,35.906-33.304,33.934C19.036,77.758,3.541,59.37,3.179,38.656"/>
	<path clip-path="url(#SVGID_2_)" fill="#98B9E2" d="M3.442,38.699C3.084,18.145,17.879,3.07,36.488,5.026
		c18.611,1.956,33.988,20.204,34.347,40.757c0.359,20.553-14.437,35.628-33.046,33.672C19.179,77.498,3.801,59.252,3.442,38.699"/>
	<path clip-path="url(#SVGID_2_)" fill="#9EBCE3" d="M3.711,38.714C3.355,18.32,18.036,3.361,36.502,5.303
		c18.466,1.94,33.723,20.045,34.08,40.439c0.356,20.394-14.325,35.354-32.791,33.412S4.068,59.108,3.711,38.714"/>
	<path clip-path="url(#SVGID_2_)" fill="#A4BFE5" d="M3.975,38.756C3.622,18.522,18.188,3.68,36.508,5.606
		c18.322,1.926,33.461,19.89,33.813,40.124c0.354,20.234-14.212,35.075-32.533,33.15C19.468,76.955,4.328,58.991,3.975,38.756"/>
	<path clip-path="url(#SVGID_2_)" fill="#A9C2E6" d="M4.239,38.772c-0.35-20.076,14.1-34.8,32.277-32.889
		S69.712,25.616,70.063,45.69c0.351,20.075-14.101,34.799-32.277,32.889C19.608,76.668,4.589,58.846,4.239,38.772"/>
	<path clip-path="url(#SVGID_2_)" fill="#AFC5E7" d="M4.481,38.787C4.133,18.872,18.469,4.263,36.502,6.16
		C54.534,8.054,69.435,25.735,69.781,45.65c0.349,19.916-13.987,34.523-32.02,32.628C19.729,76.383,4.829,58.703,4.481,38.787"/>
	<path clip-path="url(#SVGID_2_)" fill="#B4C8E9" d="M4.745,38.834C4.4,19.079,18.621,4.588,36.509,6.468
		c17.888,1.88,32.669,19.419,33.014,39.175c0.346,19.756-13.876,34.247-31.765,32.366C19.871,76.129,5.09,58.59,4.745,38.834"/>
	<path clip-path="url(#SVGID_2_)" fill="#BACBEA" d="M5.008,38.849C4.667,19.253,18.772,4.879,36.516,6.745
		S68.92,26.007,69.264,45.604C69.605,65.2,55.5,79.574,37.756,77.708C20.012,75.843,5.351,58.446,5.008,38.849"/>
	<path clip-path="url(#SVGID_2_)" fill="#BFCEEB" d="M5.29,38.877C4.95,19.449,18.935,5.199,36.527,7.048
		c17.592,1.849,32.127,19.097,32.467,38.525c0.338,19.428-13.646,33.679-31.238,31.83C20.164,75.554,5.628,58.305,5.29,38.877"/>
	<path clip-path="url(#SVGID_2_)" fill="#C1CFEC" d="M5.553,38.905C5.215,19.639,19.085,5.507,36.529,7.341
		c17.446,1.833,31.859,18.938,32.195,38.205c0.337,19.266-13.531,33.398-30.977,31.564C20.304,75.276,5.889,58.172,5.553,38.905"/>
	<path clip-path="url(#SVGID_2_)" fill="#C2D0EC" d="M5.815,38.938C5.482,19.833,19.234,5.82,36.532,7.639
		C53.83,9.457,68.125,26.418,68.458,45.523c0.333,19.104-13.419,33.117-30.718,31.298C20.441,75.004,6.149,58.042,5.815,38.938"/>
	<path clip-path="url(#SVGID_2_)" fill="#C4D2ED" d="M6.078,38.966C5.747,20.023,19.382,6.129,36.535,7.932
		c17.152,1.802,31.323,18.62,31.655,37.562c0.331,18.943-13.306,32.837-30.457,31.035C20.581,74.727,6.408,57.909,6.078,38.966"/>
	<path clip-path="url(#SVGID_2_)" fill="#C5D3ED" d="M6.34,39C6.013,20.218,19.532,6.442,36.537,8.23
		c17.005,1.788,31.057,18.461,31.386,37.242c0.327,18.781-13.192,32.557-30.197,30.77C20.721,74.454,6.669,57.78,6.34,39"/>
	<path clip-path="url(#SVGID_2_)" fill="#C7D4EE" d="M6.63,39.027C6.305,20.408,19.708,6.751,36.568,8.523
		c16.859,1.771,30.789,18.302,31.114,36.921c0.325,18.62-13.079,32.277-29.937,30.504C20.885,74.176,6.955,57.646,6.63,39.027"/>
	<path clip-path="url(#SVGID_2_)" fill="#C8D5EE" d="M6.893,39.055C6.571,20.598,19.856,7.06,36.57,8.817
		c16.712,1.756,30.521,18.143,30.844,36.6c0.322,18.458-12.964,31.996-29.677,30.239C21.024,73.899,7.215,57.513,6.893,39.055"/>
	<path clip-path="url(#SVGID_2_)" fill="#CAD6EF" d="M7.156,39.088C6.837,20.792,20.007,7.374,36.573,9.114
		c16.566,1.742,30.254,17.985,30.573,36.28c0.319,18.296-12.85,31.715-29.416,29.974C21.164,73.627,7.476,57.384,7.156,39.088"/>
	<path clip-path="url(#SVGID_2_)" fill="#CBD7EF" d="M7.414,39.116C7.097,20.982,20.151,7.681,36.57,9.407
		c16.419,1.726,29.986,17.825,30.304,35.959C67.189,63.5,54.137,76.802,37.716,75.075C21.297,73.35,7.731,57.25,7.414,39.116"/>
	<path clip-path="url(#SVGID_2_)" fill="#CDD8F0" d="M7.676,39.145C7.363,21.173,20.3,7.99,36.573,9.7
		c16.273,1.71,29.719,17.666,30.033,35.638S53.983,76.493,37.709,74.782C21.437,73.073,7.991,57.117,7.676,39.145"/>
	<path clip-path="url(#SVGID_2_)" fill="#CED9F0" d="M7.939,39.178C7.628,21.367,20.448,8.303,36.576,9.999
		c16.125,1.695,29.452,17.507,29.762,35.318c0.312,17.81-12.51,30.874-28.635,29.177C21.575,72.799,8.25,56.987,7.939,39.178"/>
	<path clip-path="url(#SVGID_2_)" fill="#D0DAF1" d="M8.202,39.179C7.894,21.53,20.598,8.584,36.578,10.264
		c15.979,1.68,29.183,17.348,29.493,34.997c0.308,17.648-12.396,30.594-28.376,28.914S8.511,56.827,8.202,39.179"/>
	<path clip-path="url(#SVGID_2_)" fill="#D1DCF1" d="M8.464,39.212C8.159,21.724,20.747,8.898,36.581,10.562
		c15.834,1.664,28.917,17.189,29.222,34.676c0.305,17.487-12.282,30.314-28.117,28.649C21.854,72.223,8.77,56.698,8.464,39.212"/>
	<path clip-path="url(#SVGID_2_)" fill="#D3DDF2" d="M8.727,39.239C8.424,21.914,20.896,9.206,36.583,10.855
		c15.688,1.649,28.649,17.031,28.951,34.355c0.304,17.324-12.167,30.033-27.854,28.384S9.03,56.564,8.727,39.239"/>
	<path clip-path="url(#SVGID_2_)" fill="#D5DEF2" d="M8.99,39.268c-0.3-17.164,12.055-29.752,27.596-28.12
		c15.541,1.634,28.382,16.871,28.682,34.035c0.299,17.163-12.055,29.752-27.596,28.119C22.131,71.668,9.29,56.431,8.99,39.268"/>
	<path clip-path="url(#SVGID_2_)" fill="#D6DFF3" d="M9.28,39.3C8.983,22.299,21.221,9.829,36.616,11.447
		C52.01,13.065,64.73,28.159,65.027,45.16c0.297,17.001-11.942,29.472-27.335,27.854C22.296,71.396,9.576,56.302,9.28,39.3"/>
	<path clip-path="url(#SVGID_2_)" fill="#D7E0F3" d="M9.542,39.329C9.249,22.489,21.371,10.137,36.619,11.74
		c15.248,1.602,27.848,16.552,28.14,33.393c0.295,16.839-11.828,29.191-27.075,27.588C22.435,71.119,9.836,56.168,9.542,39.329"/>
	<path clip-path="url(#SVGID_2_)" fill="#D9E2F4" d="M9.805,39.361C9.514,22.684,21.519,10.451,36.621,12.038
		C51.722,13.625,64.2,28.432,64.492,45.11c0.292,16.678-11.714,28.91-26.816,27.323C22.575,70.846,10.097,56.04,9.805,39.361"/>
	<path clip-path="url(#SVGID_2_)" fill="#DBE3F4" d="M10.067,39.389C9.78,22.873,21.669,10.758,36.624,12.33
		c14.956,1.573,27.312,16.235,27.6,32.752c0.288,16.516-11.601,28.63-26.557,27.058C22.713,70.569,10.357,55.906,10.067,39.389"/>
	<path clip-path="url(#SVGID_2_)" fill="#DCE4F5" d="M10.331,39.418c-0.286-16.355,11.487-28.351,26.295-26.794
		c14.808,1.556,27.043,16.076,27.33,32.43c0.286,16.354-11.487,28.351-26.295,26.794C22.852,70.291,10.616,55.771,10.331,39.418"/>
	<path clip-path="url(#SVGID_2_)" fill="#DEE5F5" d="M10.594,39.45c-0.283-16.192,11.373-28.069,26.036-26.528
		c14.662,1.542,26.777,15.917,27.06,32.109c0.283,16.192-11.374,28.07-26.036,26.529C22.992,70.019,10.877,55.644,10.594,39.45"/>
	<path clip-path="url(#SVGID_2_)" fill="#DFE6F6" d="M10.852,39.478c-0.281-16.03,11.259-27.79,25.775-26.263
		c14.516,1.526,26.509,15.758,26.789,31.789S52.156,72.792,37.64,71.267C23.125,69.742,11.131,55.51,10.852,39.478"/>
	<path clip-path="url(#SVGID_2_)" fill="#E1E8F6" d="M11.114,39.511c-0.277-15.869,11.147-27.508,25.515-25.998
		c14.368,1.51,26.241,15.6,26.518,31.468C63.425,60.85,52.002,72.49,37.632,70.98C23.264,69.47,11.391,55.38,11.114,39.511"/>
	<path clip-path="url(#SVGID_2_)" fill="#E3E9F7" d="M11.377,39.54c-0.275-15.708,11.032-27.229,25.255-25.734
		c14.222,1.496,25.974,15.44,26.249,31.147c0.273,15.708-11.033,27.229-25.255,25.733C23.403,69.191,11.651,55.247,11.377,39.54"/>
	<path clip-path="url(#SVGID_2_)" fill="#E4EAF7" d="M11.666,39.541c-0.271-15.546,10.919-26.948,24.996-25.468
		c14.076,1.479,25.706,15.281,25.978,30.827c0.271,15.546-10.919,26.947-24.996,25.468C23.569,68.888,11.939,55.086,11.666,39.541"
		/>
	<path clip-path="url(#SVGID_2_)" fill="#E6EBF8" d="M11.929,39.574C11.661,24.189,22.735,12.906,36.665,14.37
		c13.93,1.464,25.439,15.122,25.708,30.507C62.64,60.261,51.567,71.543,37.638,70.08C23.708,68.615,12.198,54.958,11.929,39.574"/>
	<path clip-path="url(#SVGID_2_)" fill="#E7ECF8" d="M12.192,39.602c-0.266-15.222,10.692-26.388,24.476-24.938
		c13.782,1.449,25.171,14.962,25.436,30.185c0.267,15.222-10.69,26.388-24.474,24.939C23.847,68.338,12.458,54.824,12.192,39.602"/>
	<path clip-path="url(#SVGID_2_)" fill="#E8EDF9" d="M12.455,39.634c-0.263-15.06,10.578-26.106,24.215-24.673
		c13.637,1.434,24.904,14.803,25.167,29.864c0.263,15.06-10.579,26.107-24.215,24.673S12.718,54.695,12.455,39.634"/>
	<path clip-path="url(#SVGID_2_)" fill="#EAEFF9" d="M12.718,39.663c-0.261-14.898,10.464-25.827,23.955-24.409
		c13.489,1.418,24.636,14.646,24.896,29.543c0.26,14.899-10.465,25.827-23.954,24.409C24.125,67.788,12.978,54.562,12.718,39.663"/>
	<path clip-path="url(#SVGID_2_)" fill="#ECF0FA" d="M12.981,39.691c-0.258-14.737,10.35-25.547,23.694-24.144
		c13.344,1.403,24.37,14.486,24.627,29.223C61.56,59.507,50.95,70.316,37.607,68.914C24.263,67.511,13.238,54.428,12.981,39.691"/>
	<path clip-path="url(#SVGID_2_)" fill="#EDF1FA" d="M13.244,39.723c-0.255-14.575,10.237-25.265,23.434-23.877
		c13.198,1.387,24.101,14.326,24.355,28.901C61.289,59.323,50.797,70.013,37.6,68.625C24.402,67.238,13.498,54.298,13.244,39.723"/>
	<path clip-path="url(#SVGID_2_)" fill="#EFF2FB" d="M13.507,39.752c-0.253-14.414,10.122-24.986,23.174-23.613
		c13.05,1.372,23.834,14.167,24.086,28.581c0.251,14.413-10.124,24.985-23.175,23.614C24.542,66.961,13.758,54.166,13.507,39.752"/>
	<path clip-path="url(#SVGID_2_)" fill="#F0F3FB" d="M13.768,39.779C13.52,25.528,23.779,15.075,36.683,16.431
		c12.904,1.356,23.566,14.008,23.815,28.261c0.249,14.25-10.009,24.705-22.913,23.348C24.681,66.684,14.018,54.032,13.768,39.779"/>
	<path clip-path="url(#SVGID_2_)" fill="#F2F5FC" d="M14.027,39.812C13.78,25.723,23.922,15.388,36.681,16.73
		c12.756,1.34,23.299,13.85,23.545,27.939c0.246,14.088-9.896,24.424-22.654,23.083C24.815,66.411,14.272,53.902,14.027,39.812"/>
	<path clip-path="url(#SVGID_2_)" fill="#F3F6FC" d="M14.316,39.841c-0.243-13.928,9.783-24.144,22.395-22.819
		c12.611,1.327,23.032,13.691,23.274,27.619c0.243,13.928-9.782,24.144-22.394,22.818C24.98,66.134,14.559,53.769,14.316,39.841"/>
	<path clip-path="url(#SVGID_2_)" fill="#F5F7FC" d="M14.579,39.874c-0.24-13.767,9.669-23.863,22.134-22.554
		c12.464,1.311,22.763,13.533,23.003,27.298c0.241,13.767-9.667,23.863-22.133,22.554C25.119,65.861,14.819,53.64,14.579,39.874"/>
	<path clip-path="url(#SVGID_2_)" fill="#F6F8FD" d="M14.841,39.902c-0.237-13.604,9.556-23.583,21.875-22.289
		C49.034,18.908,59.211,30.986,59.45,44.59c0.238,13.605-9.556,23.584-21.874,22.288C25.258,65.583,15.08,53.506,14.841,39.902"/>
	<path clip-path="url(#SVGID_2_)" fill="#F8F9FD" d="M15.104,39.903C14.869,26.46,24.546,16.6,36.719,17.878
		c12.172,1.28,22.229,13.214,22.463,26.658c0.235,13.441-9.442,23.302-21.614,22.022C25.397,65.279,15.339,53.346,15.104,39.903"/>
	<path clip-path="url(#SVGID_2_)" fill="#F9FBFE" d="M15.368,39.936c-0.232-13.281,9.328-23.022,21.354-21.759
		c12.024,1.264,21.96,13.055,22.194,26.336c0.231,13.28-9.329,23.022-21.354,21.758C25.535,65.008,15.599,53.217,15.368,39.936"/>
	<path clip-path="url(#SVGID_2_)" fill="#FBFCFE" d="M15.63,39.964c-0.23-13.12,9.215-22.743,21.094-21.494
		c11.878,1.249,21.694,12.896,21.922,26.015c0.229,13.12-9.215,22.743-21.093,21.494C25.675,64.73,15.859,53.083,15.63,39.964"/>
	<path clip-path="url(#SVGID_2_)" fill="#FCFDFE" d="M15.893,39.997c-0.227-12.958,9.102-22.461,20.834-21.228
		c11.731,1.233,21.425,12.737,21.651,25.694c0.228,12.958-9.1,22.461-20.833,21.229C25.814,64.457,16.12,52.954,15.893,39.997"/>
	<path clip-path="url(#SVGID_2_)" fill="#FEFEFF" d="M16.155,40.025c-0.224-12.796,8.987-22.182,20.574-20.963
		c11.586,1.218,21.159,12.578,21.383,25.374c0.223,12.796-8.987,22.181-20.575,20.962C25.952,64.18,16.378,52.82,16.155,40.025"/>
	<path clip-path="url(#SVGID_2_)" fill="#FFFFFF" d="M16.418,40.053c-0.221-12.634,8.873-21.9,20.313-20.698
		c11.438,1.203,20.891,12.419,21.112,25.052c0.221,12.635-8.873,21.9-20.313,20.699C26.091,63.903,16.639,52.687,16.418,40.053"/>
	<path clip-path="url(#SVGID_2_)" fill="#FFFFFF" d="M26.774,41.151c-0.11-6.317,4.437-10.95,10.156-10.349
		c5.72,0.602,10.446,6.21,10.557,12.526c0.11,6.317-4.436,10.95-10.156,10.349C31.61,53.076,26.885,47.468,26.774,41.151"/>
</g>
<g>
	<path fill="#FFFFFF" d="M22.47,37.28c0-9.913,6.626-15.947,15.506-15.947c9.217,0,16.792,8.917,16.911,16.77
		c0.155,10.296-7.339,15.917-15.464,16.033C30.061,54.269,22.47,46.589,22.47,37.28"/>
	<path d="M11.363,59.718c-0.631-0.742-1.229-1.513-1.792-2.309C10.042,58.167,10.686,58.958,11.363,59.718"/>
	<path fill-rule="evenodd" clip-rule="evenodd" fill="#008046" d="M67.792,50.015c-13.274,0.908-37.765-12.524-64.966-8.911
		c-0.319-2.268-0.393-5.205-0.257-7.105c31.863,2.629,30.973,9.361,66.483,10.757C68.768,46.206,68.237,48.686,67.792,50.015"/>
</g>
<g>
	<defs>
		<path id="SVGID_3_" d="M2.826,41.104c14.772-1.961,28.745,1.104,40.556,4.168c9.938,2.579,18.344,5.158,24.41,4.743
			c0.445-1.329,0.976-3.81,1.26-5.259c-35.51-1.396-34.621-8.128-66.483-10.757C2.434,35.899,2.508,38.836,2.826,41.104"/>
	</defs>
	<clipPath id="SVGID_4_">
		<use xlink:href="#SVGID_3_"  overflow="visible"/>
	</clipPath>
	<path clip-path="url(#SVGID_4_)" fill="#54A238" d="M1.536,36.618c0-16.961,13.75-30.711,30.71-30.711
		c16.963,0,30.711,13.75,30.711,30.711S49.209,67.329,32.247,67.329C15.286,67.329,1.536,53.579,1.536,36.618"/>
</g>
<g>
	<path fill="#FFDA00" d="M47.387,49.16c-17.424-1.33-32.892,0.295-40.547,4.143c-1.578-2.857-2.768-5.957-3.499-9.224
		c0.002-0.02,0.001-0.038-0.003-0.057C19.067,41.009,34.303,45.615,47.387,49.16"/>
	<path fill="#B30931" d="M66.637,52.713c-6.204,8.665-35.373,1.83-50.164,11.716c-0.828-0.623-1.627-1.283-2.396-1.976
		c-2.075-1.872-3.925-3.992-5.504-6.312c0.318-0.185,0.646-0.362,0.985-0.534C21.926,50.447,43.588,51.513,66.637,52.713"/>
</g>
<g>
	<defs>
		<path id="SVGID_5_" d="M9.558,55.608c-0.338,0.173-0.667,0.349-0.985,0.534c1.579,2.319,3.429,4.439,5.504,6.312
			c0.769,0.693,1.568,1.353,2.396,1.976c14.792-9.887,43.96-3.052,50.164-11.716c-9.735-0.508-19.22-0.991-27.865-0.991
			C26.951,51.723,16.703,52.627,9.558,55.608"/>
	</defs>
	<clipPath id="SVGID_6_">
		<use xlink:href="#SVGID_5_"  overflow="visible"/>
	</clipPath>
	<path clip-path="url(#SVGID_6_)" fill="#C70732" d="M1.536,36.618c0-16.961,13.75-30.711,30.71-30.711
		c16.963,0,30.711,13.75,30.711,30.711S49.209,67.329,32.247,67.329C15.286,67.329,1.536,53.579,1.536,36.618"/>
</g>
<g>
	<path fill="#00539E" d="M37.49,71.243c-6.466,0.092-12.523-1.621-17.719-4.663c7.714-6.278,37.07-4.535,44.237-8.88
		c-5.898,8.716-15.913,13.373-26.451,13.542L37.49,71.243z"/>
</g>
<g>
	<defs>
		<path id="SVGID_7_" d="M19.771,66.58c5.196,3.042,11.253,4.754,17.719,4.663l0.067-0.001C48.096,71.072,58.11,66.417,64.008,57.7
			C56.841,62.044,27.485,60.302,19.771,66.58"/>
	</defs>
	<clipPath id="SVGID_8_">
		<use xlink:href="#SVGID_7_"  overflow="visible"/>
	</clipPath>
	<path clip-path="url(#SVGID_8_)" fill="#0077BD" d="M1.536,36.618c0-16.961,13.75-30.711,30.71-30.711
		c16.963,0,30.711,13.75,30.711,30.711S49.209,67.329,32.247,67.329C15.286,67.329,1.536,53.579,1.536,36.618"/>
</g>
<g>
	<rect x="77.73" y="49.485" fill="#00539E" width="64.095" height="8.535"/>
	<path fill="#FFFFFF" d="M94.609,51.55h1.296l2.346,4.589H97.03l-0.528-1.03h-2.644l-0.483,1.03H92.27L94.609,51.55z M96.134,54.359
		l-0.953-1.996l-0.954,1.996H96.134z"/>
	<path fill="#FFFFFF" d="M98.942,51.55h2.702c0.902,0,1.704,0.222,1.704,1.17c0,0.579-0.534,0.94-1.131,0.979v0.044
		c0.597,0.05,1.366,0.292,1.366,1.163c0,0.502-0.355,1.233-1.837,1.233h-2.803V51.55z M99.972,53.418h1.468
		c0.502,0,0.801-0.152,0.801-0.559c0-0.496-0.464-0.598-0.998-0.598h-1.271V53.418z M99.972,55.427h1.424
		c0.629,0,1.081-0.171,1.081-0.642c0-0.527-0.553-0.654-1.01-0.654h-1.494V55.427z"/>
	<path fill="#FFFFFF" d="M104.592,51.55h2.752c1.01,0,1.767,0.324,1.767,1.233c0,0.801-0.559,1.132-1.265,1.183v0.012
		c1.049,0.045,1.132,0.516,1.182,1.367c0.02,0.382,0.07,0.617,0.14,0.794h-1.105c-0.057-0.133-0.089-0.458-0.103-0.725
		c-0.044-0.902-0.247-1.086-1.251-1.086h-1.086v1.811h-1.03V51.55z M105.622,53.616h1.335c0.604,0,1.086-0.134,1.086-0.687
		s-0.496-0.629-1.042-0.629h-1.379V53.616z"/>
	<path fill="#FFFFFF" d="M112.683,51.429c1.69,0,2.676,0.808,2.676,2.415c0,1.608-0.985,2.416-2.676,2.416
		c-1.691,0-2.676-0.808-2.676-2.416C110.006,52.237,110.992,51.429,112.683,51.429 M112.683,55.51c0.998,0,1.608-0.585,1.608-1.666
		s-0.61-1.666-1.608-1.666c-0.992,0-1.608,0.585-1.608,1.666S111.691,55.51,112.683,55.51"/>
	<path fill="#FFFFFF" d="M117.996,51.55h1.297l2.345,4.589h-1.22l-0.528-1.03h-2.644l-0.482,1.03h-1.106L117.996,51.55z
		 M119.521,54.359l-0.953-1.996l-0.954,1.996H119.521z"/>
	<path fill="#FFFFFF" d="M122.253,51.55h2.18c1.76,0,2.536,0.998,2.536,2.346c0,0.858-0.49,2.243-2.53,2.243h-2.186V51.55z
		 M123.283,55.389h1.017c1.309,0,1.602-0.973,1.602-1.57c0-1.062-0.706-1.519-1.608-1.519h-1.011V55.389z"/>
	<path fill="#00539E" d="M116.798,37.564h12.285l-5.049-10.099L116.798,37.564z M130.382,40.197h-15.455l-4.556,6.399h-4.21
		L121.818,24.6c0.869-1.167,2.692-2,4.722-2c2.083,0,3.723,0.867,4.286,2.066l10.804,21.93h-8.025L130.382,40.197z M89.964,46.596
		H77.926L80.522,22.6h12.038h2.229c9.362,0,16.361,5.365,15.643,11.999c-0.717,6.632-8.878,11.998-18.239,11.998H89.964z
		 M92.473,25.232h-4.656L85.79,43.964h4.657h1.833c4.903,0,9.321-4.2,9.88-9.365c0.56-5.166-2.948-9.367-7.853-9.367H92.473z"/>
</g>
</svg>
