<svg id="Layer_1" data-name="Layer 1" xmlns="http://www.w3.org/2000/svg" xmlns:xlink="http://www.w3.org/1999/xlink" width="62" height="62" viewBox="0 0 62 62">
  <defs>
    <style>
      .cls-1 {
        fill: none;
      }

      .cls-2 {
        clip-path: url(#clip-path);
      }

      .cls-3 {
        fill: #fff;
      }

      .cls-4 {
        clip-path: url(#clip-path-2);
      }

      .cls-5 {
        fill: #007dbf;
      }

      .cls-6 {
        fill: #0080bf;
      }

      .cls-7 {
        fill: #0080c2;
      }

      .cls-8 {
        fill: #0082c4;
      }

      .cls-9 {
        fill: #0085c4;
      }

      .cls-10 {
        fill: #0087c7;
      }

      .cls-11 {
        fill: #008ac7;
      }

      .cls-12 {
        fill: #0a8cc9;
      }

      .cls-13 {
        fill: #1c8fcc;
      }

      .cls-14 {
        fill: #298fcc;
      }

      .cls-15 {
        fill: #3391cc;
      }

      .cls-16 {
        fill: #3d94cc;
      }

      .cls-17 {
        fill: #4596cf;
      }

      .cls-18 {
        fill: #4a99cf;
      }

      .cls-19 {
        fill: #549cd1;
      }

      .cls-20 {
        fill: #5c9ed1;
      }

      .cls-21 {
        fill: #61a1d4;
      }

      .cls-22 {
        fill: #66a1d4;
      }

      .cls-23 {
        fill: #6ba3d6;
      }

      .cls-24 {
        fill: #70a6d6;
      }

      .cls-25 {
        fill: #75a6d6;
      }

      .cls-26 {
        fill: #80abd9;
      }

      .cls-27 {
        fill: #82add9;
      }

      .cls-28 {
        fill: #87b0db;
      }

      .cls-29 {
        fill: #8cb2db;
      }

      .cls-30 {
        fill: #91b5de;
      }

      .cls-31 {
        fill: #96b8de;
      }

      .cls-32 {
        fill: #a1bde3;
      }

      .cls-33 {
        fill: #a6bfe3;
      }

      .cls-34 {
        fill: #abc2e3;
      }

      .cls-35 {
        fill: #b0c4e5;
      }

      .cls-36 {
        fill: #b2c7e5;
      }

      .cls-37 {
        fill: #b2c7e8;
      }

      .cls-38 {
        fill: #b5c7e8;
      }

      .cls-39 {
        fill: #b8c9e8;
      }

      .cls-40 {
        fill: #b8cce8;
      }

      .cls-41 {
        fill: #bacce8;
      }

      .cls-42 {
        fill: #bdcce8;
      }

      .cls-43 {
        fill: #bfcfeb;
      }

      .cls-44 {
        fill: #c2d1eb;
      }

      .cls-45 {
        fill: #c2d1ed;
      }

      .cls-46 {
        fill: #c7d4ed;
      }

      .cls-47 {
        fill: #c9d6ed;
      }

      .cls-48 {
        fill: #ccd9ed;
      }

      .cls-49 {
        fill: #cfd9f0;
      }

      .cls-50 {
        fill: #d1dbf0;
      }

      .cls-51 {
        fill: #d4def0;
      }

      .cls-52 {
        fill: #d6def2;
      }

      .cls-53 {
        fill: #d9e0f2;
      }

      .cls-54 {
        fill: #d9e3f2;
      }

      .cls-55 {
        fill: #dee3f2;
      }

      .cls-56 {
        fill: #dee5f5;
      }

      .cls-57 {
        fill: #e3e8f5;
      }

      .cls-58 {
        fill: #e5ebf5;
      }

      .cls-59 {
        fill: #e8edf5;
      }

      .cls-60 {
        fill: #ebedf7;
      }

      .cls-61 {
        fill: #edf0f7;
      }

      .cls-62 {
        fill: #f0f2fa;
      }

      .cls-63 {
        fill: #f2f5fa;
      }

      .cls-64 {
        fill: #f5f7fa;
      }

      .cls-65 {
        fill: #f7f7fa;
      }

      .cls-66 {
        fill: #fafcff;
      }

      .cls-67 {
        fill: #1c1c1c;
      }

      .cls-68 {
        fill: #00874f;
      }

      .cls-69 {
        clip-path: url(#clip-path-4);
      }

      .cls-70 {
        fill: #54a647;
      }

      .cls-71 {
        fill: #ffd900;
      }

      .cls-72 {
        fill: #b50a38;
      }

      .cls-73 {
        clip-path: url(#clip-path-6);
      }

      .cls-74 {
        fill: #c9123b;
      }

      .cls-75 {
        fill: #005ca6;
      }

      .cls-76 {
        clip-path: url(#clip-path-8);
      }
    </style>
    <clipPath id="clip-path">
      <rect class="cls-1" x="2" y="0.7" width="59.6" height="60.33"/>
    </clipPath>
    <clipPath id="clip-path-2">
      <path class="cls-1" d="M43,32.1h0v.2c0,.1,0,.3,0,.4l16.9.8c0-.6,0-1.2,0-1.8s0-.3,0-.4,0-1-.1-1.5Zm-.7-2.9.3.7,16-6.1A29.2,29.2,0,0,0,57,20.2ZM4.6,22.4l22.1,7.3.3-.9L5.9,18.2a28.3,28.3,0,0,0-1.3,4.2m35.9,4.2.5.6L53.5,14.5a34,34,0,0,0-2.7-3.1ZM8,14c4.1,2.8,16.5,10.6,20,12.8l.5-.6L10.6,10.5A24.4,24.4,0,0,0,8,14M38.3,24.8h.1l.5.3L46.3,7.6a30.3,30.3,0,0,0-3.5-2.1ZM15,6.8,29.8,25.1l.7-.4L18.3,5A24.5,24.5,0,0,0,15,6.8m8.6-3.6,8.9,20.8h.8L27.1,2.6l-3.6.6M35.3,23.8l.8.2.7-20.8a25.3,25.3,0,0,0-3.8-.7Z"/>
    </clipPath>
    <clipPath id="clip-path-4">
      <path class="cls-1" d="M3.9,33.9c12.4-1.6,24.2.9,34.1,3.5,8.4,2.2,15.4,4.3,20.5,4A44,44,0,0,0,59.6,37c-29.9-1.2-29.1-6.8-55.9-9a32.2,32.2,0,0,0,.2,6"/>
    </clipPath>
    <clipPath id="clip-path-6">
      <path class="cls-1" d="M9.6,46.1l-.8.4a29.4,29.4,0,0,0,4.6,5.3l2,1.7c12.4-8.3,37-2.6,42.2-9.9-8.2-.4-16.2-.8-23.4-.8-9.9,0-18.6.8-24.6,3.3"/>
    </clipPath>
    <clipPath id="clip-path-8">
      <path class="cls-1" d="M18.2,55.3a28.6,28.6,0,0,0,14.9,3.9h.1c8.9-.1,17.3-4.1,22.2-11.4-6,3.7-30.7,2.2-37.2,7.5"/>
    </clipPath>
  </defs>
  <title>da-icon</title>
  <g class="cls-2">
    <path class="cls-3" d="M2,30C2,11.8,14.2.7,30.5.7S61.4,17.1,61.6,31.5C61.9,50.4,48.1,60.8,33.2,61A30.9,30.9,0,0,1,2,30"/>
  </g>
  <g class="cls-4">
    <rect class="cls-5" x="4.6" y="2.5" width="55.2" height="31.13"/>
    <path class="cls-5" d="M-1.3,31.3c-.4-20.8,14.6-36,33.4-34S66.5,17.7,66.8,38.4s-14.6,36-33.4,34S-.9,52-1.3,31.3"/>
    <path class="cls-5" d="M-1,31.3C-1.4,10.7,13.4-4.5,32.1-2.5S66.3,17.8,66.6,38.4,52.1,74.2,33.4,72.2-.7,51.9-1,31.3"/>
    <path class="cls-6" d="M-.8,31.3c-.4-20.5,14.4-35.5,33-33.6S66,17.9,66.4,38.4,52,73.9,33.4,72-.5,51.8-.8,31.3"/>
    <path class="cls-7" d="M-.6,31.3C-1,11,13.7-4,32.1-2s33.7,20,34,40.4S51.9,73.7,33.4,71.7-.3,51.7-.6,31.3"/>
    <path class="cls-8" d="M-.4,31.4C-.7,11.1,13.8-3.7,32.1-1.8S65.6,18.1,66,38.3,51.7,73.4,33.4,71.5,0,51.6-.4,31.4"/>
    <path class="cls-9" d="M-.2,31.4C-.5,11.3,14-3.5,32.1-1.5S65.4,18.2,65.7,38.3,51.6,73.2,33.4,71.2.2,51.5-.2,31.4"/>
    <path class="cls-10" d="M.1,31.4c-.3-20,14-34.6,32.1-32.7s33,19.6,33.4,39.6S51.5,72.9,33.4,71,.4,51.4.1,31.4"/>
    <path class="cls-10" d="M.3,31.4C-.1,11.6,14.2-2.9,32.2-1.1S64.9,18.4,65.3,38.3,51.4,72.7,33.4,70.8.6,51.3.3,31.4"/>
    <path class="cls-10" d="M.5,31.5C.2,11.8,14.3-2.7,32.2-.8S64.7,18.5,65.1,38.2,51.2,72.4,33.4,70.5.8,51.2.5,31.5"/>
    <path class="cls-11" d="M.7,31.5C.4,11.9,14.5-2.4,32.2-.6S64.5,18.7,64.9,38.2,51.1,72.1,33.4,70.3,1.1,51,.7,31.5"/>
    <path class="cls-12" d="M.9,31.5C.6,12.1,14.6-2.2,32.2-.3S64.3,18.8,64.6,38.2,51,71.9,33.4,70,1.3,50.9.9,31.5"/>
    <path class="cls-13" d="M1.2,31.5C.8,12.2,14.7-1.9,32.2-.1s31.9,19,32.2,38.3-13.6,33.4-31,31.6S1.5,50.8,1.2,31.5"/>
    <path class="cls-14" d="M1.4,31.5C1,12.4,14.8-1.7,32.2.2s31.7,18.8,32,38S50.7,71.4,33.4,69.5s-31.7-18.8-32-38"/>
    <path class="cls-15" d="M1.6,31.6C1.3,12.5,15-1.4,32.2.4S63.6,19.1,64,38.1s-13.4,33-30.6,31.2S1.9,50.6,1.6,31.6"/>
    <path class="cls-16" d="M1.8,31.6C1.5,12.7,15.1-1.2,32.2.6S63.4,19.2,63.8,38.1s-13.3,32.8-30.4,31S2.1,50.5,1.8,31.6"/>
    <path class="cls-17" d="M2,31.6C1.7,12.9,15.2-.9,32.2.9s31,18.4,31.3,37.2S50.4,70.6,33.4,68.8,2.4,50.4,2,31.6"/>
    <path class="cls-18" d="M2.2,31.6C1.9,13,15.3-.6,32.2,1.1S63,19.4,63.3,38.1,50.2,70.4,33.4,68.6,2.6,50.3,2.2,31.6"/>
    <path class="cls-19" d="M2.5,31.7C2.1,13.2,15.5-.4,32.2,1.4S62.8,19.5,63.1,38s-13,32.1-29.7,30.3S2.8,50.2,2.5,31.7"/>
    <path class="cls-20" d="M2.7,31.7C2.4,13.3,15.6-.1,32.2,1.6S62.6,19.7,62.9,38,50,69.8,33.4,68.1,3,50,2.7,31.7"/>
    <path class="cls-21" d="M2.9,31.7C2.6,13.5,15.7.1,32.2,1.9S62.3,19.8,62.7,38,49.9,69.6,33.4,67.9,3.2,49.9,2.9,31.7"/>
    <path class="cls-22" d="M3.1,31.7C2.8,13.6,15.8.4,32.2,2.1S62.1,19.9,62.4,38,49.7,69.3,33.4,67.6,3.4,49.8,3.1,31.7"/>
    <path class="cls-23" d="M3.4,31.8C3,13.8,16,.6,32.2,2.3S61.9,20,62.2,37.9,49.6,69.1,33.4,67.4,3.7,49.7,3.4,31.8"/>
    <path class="cls-24" d="M3.6,31.8C3.3,14,16.1.9,32.2,2.6S61.7,20.1,62,37.9,49.5,68.8,33.4,67.1,3.9,49.6,3.6,31.8"/>
    <path class="cls-25" d="M3.8,31.8C3.5,14.1,16.2,1.1,32.2,2.8S61.5,20.2,61.8,37.9s-12.4,30.7-28.4,29S4.1,49.5,3.8,31.8"/>
    <path class="cls-26" d="M4,31.8C3.7,14.3,16.3,1.4,32.2,3.1s29,17.3,29.3,34.8S49.2,68.3,33.3,66.6,4.3,49.4,4,31.8"/>
    <path class="cls-27" d="M4.2,31.9C3.9,14.4,16.5,1.7,32.2,3.3S61,20.4,61.3,37.9,49.1,68,33.3,66.4,4.5,49.3,4.2,31.9"/>
    <path class="cls-28" d="M4.4,31.9C4.1,14.6,16.6,1.9,32.2,3.6s28.6,17,28.9,34.3S49,67.8,33.3,66.2,4.8,49.2,4.4,31.9"/>
    <path class="cls-29" d="M4.7,31.9C4.4,14.7,16.7,2.2,32.2,3.8s28.4,16.9,28.7,34-12,29.7-27.6,28.1S5,49,4.7,31.9"/>
    <path class="cls-30" d="M4.9,31.9C4.6,14.9,16.8,2.4,32.3,4S60.4,20.8,60.7,37.8s-12,29.5-27.4,27.9S5.2,48.9,4.9,31.9"/>
    <path class="cls-31" d="M5.1,31.9C4.8,15.1,17,2.7,32.3,4.3S60.2,20.9,60.5,37.8,48.6,67,33.3,65.4,5.4,48.8,5.1,31.9"/>
    <path class="cls-32" d="M5.3,32C5,15.2,17.1,2.9,32.3,4.5S59.9,21,60.2,37.7s-11.8,29-26.9,27.4S5.6,48.7,5.3,32"/>
    <path class="cls-33" d="M5.5,32C5.3,15.4,17.2,3.2,32.3,4.8S59.7,21.1,60,37.7,48.3,66.5,33.3,64.9,5.8,48.6,5.5,32"/>
    <path class="cls-34" d="M5.8,32C5.5,15.5,17.3,3.4,32.3,5S59.5,21.2,59.8,37.7s-11.6,28.6-26.5,27S6.1,48.5,5.8,32"/>
    <path class="cls-35" d="M6,32C5.7,15.7,17.5,3.7,32.3,5.3s27,16.1,27.3,32.4S48.1,66,33.3,64.4,6.3,48.4,6,32"/>
    <path class="cls-36" d="M6.2,32.1C5.9,15.9,17.6,4,32.3,5.5S59.1,21.4,59.3,37.6,48,65.7,33.3,64.2,6.5,48.3,6.2,32.1"/>
    <path class="cls-37" d="M6.4,32.1C6.2,16,17.7,4.2,32.3,5.8S58.8,21.6,59.1,37.6,47.8,65.5,33.3,63.9,6.7,48.1,6.4,32.1"/>
    <path class="cls-38" d="M6.7,32.1C6.4,16.2,17.9,4.5,32.3,6S58.6,21.7,58.9,37.6,47.7,65.2,33.3,63.7,6.9,48,6.7,32.1"/>
    <path class="cls-39" d="M6.9,32.1C6.6,16.3,18,4.8,32.3,6.3S58.4,21.8,58.7,37.6,47.6,65,33.3,63.5,7.2,47.9,6.9,32.1"/>
    <path class="cls-40" d="M7.1,32.2C6.9,16.5,18.1,5,32.3,6.5s25.9,15.4,26.2,31-11,27.1-25.2,25.7S7.4,47.8,7.1,32.2"/>
    <path class="cls-41" d="M7.3,32.2C7.1,16.7,18.2,5.3,32.3,6.7S58,22,58.2,37.5,47.3,64.4,33.3,63,7.6,47.7,7.3,32.2"/>
    <path class="cls-42" d="M7.6,32.2C7.3,16.8,18.4,5.5,32.3,7S57.7,22.1,58,37.5,47.2,64.2,33.3,62.7,7.8,47.6,7.6,32.2"/>
    <path class="cls-43" d="M7.8,32.2C7.5,17,18.5,5.8,32.3,7.2s25.2,15,25.5,30.2-10.7,26.4-24.5,25S8,47.5,7.8,32.2"/>
    <path class="cls-43" d="M8,32.2C7.7,17.1,18.6,6,32.3,7.5s25,14.9,25.3,30S46.9,63.7,33.3,62.2,8.3,47.4,8,32.2"/>
    <path class="cls-44" d="M8.2,32.3C8,17.3,18.7,6.3,32.3,7.7s24.8,14.7,25,29.7S46.8,63.4,33.3,62,8.5,47.3,8.2,32.3"/>
    <path class="cls-45" d="M8.4,32.3C8.2,17.4,18.9,6.6,32.3,8S56.9,22.6,57.1,37.4,46.7,63.1,33.3,61.7,8.7,47.1,8.4,32.3"/>
    <path class="cls-45" d="M8.7,32.3C8.4,17.6,19,6.8,32.3,8.2S56.6,22.7,56.9,37.4,46.6,62.9,33.2,61.5,8.9,47,8.7,32.3"/>
    <path class="cls-46" d="M8.9,32.3C8.6,17.8,19.1,7.1,32.3,8.5S56.4,22.8,56.7,37.4,46.4,62.6,33.2,61.2,9.2,46.9,8.9,32.3"/>
    <path class="cls-47" d="M9.1,32.4C8.9,17.9,19.3,7.3,32.3,8.7S56.2,22.9,56.4,37.3,46.3,62.4,33.2,61,9.4,46.8,9.1,32.4"/>
    <path class="cls-47" d="M9.4,32.4C9.1,18.1,19.4,7.6,32.3,9S56,23,56.2,37.3s-10,24.8-23,23.4S9.6,46.7,9.4,32.4"/>
    <path class="cls-48" d="M9.6,32.4C9.3,18.2,19.5,7.9,32.3,9.2S55.8,23.1,56,37.3,46.1,61.8,33.2,60.5,9.8,46.6,9.6,32.4"/>
    <path class="cls-49" d="M9.8,32.4c-.2-14,9.9-24.3,22.5-23S55.5,23.2,55.8,37.3s-9.9,24.3-22.5,23S10,46.5,9.8,32.4"/>
    <path class="cls-49" d="M10,32.5C9.8,18.6,19.8,8.4,32.3,9.7s23,13.7,23.2,27.5S45.8,61.3,33.2,60,10.3,46.3,10,32.5"/>
    <path class="cls-50" d="M10.2,32.5C10,18.7,19.9,8.6,32.4,9.9s22.7,13.5,23,27.3S45.7,61.1,33.2,59.8s-22.7-13.5-23-27.3"/>
    <path class="cls-51" d="M10.5,32.5C10.2,18.9,20,8.9,32.4,10.2s22.5,13.4,22.8,27S45.6,60.8,33.2,59.5s-22.5-13.4-22.8-27"/>
    <path class="cls-51" d="M10.7,32.5C10.4,19,20.1,9.2,32.4,10.4S54.6,23.7,54.9,37.2,45.4,60.5,33.2,59.3,10.9,46,10.7,32.5"/>
    <path class="cls-52" d="M10.9,32.6c-.2-13.3,9.4-23.1,21.5-21.9S54.4,23.8,54.7,37.2,45.3,60.3,33.2,59,11.1,45.9,10.9,32.6"/>
    <path class="cls-53" d="M11.1,32.6c-.2-13.2,9.3-22.9,21.2-21.6s21.8,13,22.1,26.2S45.2,60,33.2,58.8s-21.8-13-22.1-26.2"/>
    <path class="cls-54" d="M11.4,32.6c-.2-13.1,9.2-22.7,21-21.4S54,24,54.2,37.1,45,59.8,33.2,58.5,11.6,45.7,11.4,32.6"/>
    <path class="cls-54" d="M11.6,32.6c-.2-12.9,9.1-22.4,20.8-21.2S53.8,24.1,54,37.1,44.9,59.5,33.2,58.3,11.8,45.6,11.6,32.6"/>
    <path class="cls-55" d="M11.8,32.6c-.2-12.8,9-22.2,20.6-21S53.6,24.3,53.8,37.1s-9,22.2-20.6,21S12,45.4,11.8,32.6"/>
    <path class="cls-56" d="M12,32.7c-.2-12.7,8.9-22,20.4-20.7S53.3,24.4,53.6,37,44.7,59,33.2,57.8,12.2,45.3,12,32.7"/>
    <path class="cls-56" d="M12.2,32.7C12,20.2,21,11,32.4,12.2S53.1,24.5,53.3,37,44.5,58.7,33.2,57.5,12.5,45.2,12.2,32.7"/>
    <path class="cls-57" d="M12.5,32.7c-.2-12.4,8.7-21.5,19.9-20.3S52.9,24.6,53.1,37,44.4,58.5,33.2,57.3,12.7,45.1,12.5,32.7"/>
    <path class="cls-58" d="M12.7,32.7c-.2-12.3,8.6-21.2,19.7-20.1S52.7,24.7,52.9,37,44.3,58.2,33.2,57,12.9,45,12.7,32.7"/>
    <path class="cls-58" d="M12.9,32.8c-.2-12.1,8.5-21,19.5-19.9s20,11.9,20.3,24-8.5,21-19.5,19.9-20-11.9-20.3-24"/>
    <path class="cls-59" d="M13.1,32.8c-.2-12,8.4-20.8,19.3-19.6s19.8,11.8,20,23.8S44,57.7,33.2,56.5s-19.8-11.8-20-23.8"/>
    <path class="cls-60" d="M13.4,32.8C13.1,21,21.7,12.3,32.4,13.4S52,25,52.2,36.9,43.9,57.4,33.2,56.3,13.6,44.7,13.4,32.8"/>
    <path class="cls-60" d="M13.6,32.8c-.2-11.7,8.2-20.3,18.8-19.2S51.8,25.2,52,36.9,43.8,57.2,33.2,56.1,13.8,44.5,13.6,32.8"/>
    <path class="cls-61" d="M13.8,32.9c-.2-11.6,8.1-20.1,18.6-19s19.1,11.4,19.3,23-8.1,20.1-18.6,19S14,44.4,13.8,32.9"/>
    <path class="cls-62" d="M14,32.9c-.2-11.4,8-19.8,18.4-18.7S51.3,25.4,51.5,36.8s-8,19.8-18.4,18.7S14.2,44.3,14,32.9"/>
    <path class="cls-63" d="M14.2,32.9c-.2-11.3,7.9-19.6,18.2-18.5S51.1,25.5,51.3,36.8,43.4,56.4,33.1,55.3,14.5,44.2,14.2,32.9"/>
    <path class="cls-63" d="M14.5,32.9c-.2-11.2,7.8-19.4,18-18.3s18.5,11,18.7,22.1-7.8,19.4-18,18.3-18.5-11-18.7-22.1"/>
    <path class="cls-64" d="M14.7,32.9c-.2-11,7.8-19.1,17.7-18.1S50.7,25.7,50.9,36.7,43.1,55.9,33.1,54.8,14.9,44,14.7,32.9"/>
    <path class="cls-65" d="M14.9,33c-.2-10.9,7.7-18.9,17.5-17.9s18,10.7,18.2,21.6S43,55.6,33.1,54.6,15.1,43.9,14.9,33"/>
    <path class="cls-66" d="M15.1,33C15,22.2,22.7,14.3,32.4,15.4s17.8,10.6,18,21.3S42.9,55.4,33.1,54.3,15.3,43.8,15.1,33"/>
    <path class="cls-3" d="M15.4,33c-.2-10.6,7.5-18.4,17.1-17.4S50,26.1,50.2,36.7,42.7,55.1,33.1,54.1,15.6,43.6,15.4,33"/>
    <path class="cls-3" d="M24.1,33.9c-.1-5.3,3.7-9.2,8.5-8.7s8.8,5.2,8.9,10.5S37.8,45,33,44.5s-8.8-5.2-8.9-10.5"/>
  </g>
  <g class="cls-2">
    <path class="cls-3" d="M20.4,30.7c0-8.3,5.6-13.4,13-13.4s14.1,7.5,14.2,14.1c.1,8.7-6.2,13.4-13,13.5A14.1,14.1,0,0,1,20.4,30.7"/>
    <path class="cls-67" d="M11.1,49.6,9.6,47.6a15.7,15.7,0,0,0,1.5,1.9"/>
    <path class="cls-68" d="M58.6,41.4c-11.2.8-31.8-10.5-54.6-7.5a32.2,32.2,0,0,1-.2-6c26.8,2.2,26,7.9,55.9,9a43.4,43.4,0,0,1-1.1,4.4"/>
  </g>
  <g class="cls-69">
    <path class="cls-70" d="M2.8,30.1A25.8,25.8,0,1,1,28.7,56,25.8,25.8,0,0,1,2.8,30.1"/>
  </g>
  <g class="cls-2">
    <path class="cls-71" d="M41.4,40.7c-14.7-1.1-27.7.2-34.1,3.5h0a29.3,29.3,0,0,1-1.8-4,12.9,12.9,0,0,0-.8-2.7l-.2-1c13.2-2.5,26,1.3,37,4.3"/>
    <path class="cls-72" d="M57.6,43.7c-5.2,7.3-29.7,1.5-42.2,9.9l-2-1.7a29.4,29.4,0,0,1-4.6-5.3l.8-.4c10.4-4.3,28.6-3.4,48-2.4"/>
  </g>
  <g class="cls-73">
    <path class="cls-74" d="M2.8,30.1A25.8,25.8,0,1,1,28.7,56,25.8,25.8,0,0,1,2.8,30.1"/>
  </g>
  <g class="cls-2">
    <path class="cls-75" d="M33.1,59.3a28.6,28.6,0,0,1-14.9-3.9c6.5-5.3,31.2-3.8,37.2-7.5-5,7.3-13.4,11.2-22.2,11.4Z"/>
  </g>
  <g class="cls-76">
    <path class="cls-5" d="M2.8,30.1A25.8,25.8,0,1,1,28.7,56,25.8,25.8,0,0,1,2.8,30.1"/>
  </g>
  <g class="cls-2">
    <path class="cls-67" d="M11.2,49.7,9.7,47.7a14.3,14.3,0,0,0,1.5,1.9"/>
  </g>
</svg>
