<?xml version="1.0" encoding="utf-8"?>
<!-- Generator: Adobe Illustrator 21.0.0, SVG Export Plug-In . SVG Version: 6.00 Build 0)  -->
<svg version="1.1" id="Layer_2" xmlns="http://www.w3.org/2000/svg" xmlns:xlink="http://www.w3.org/1999/xlink" x="0px" y="0px"
	 viewBox="0 0 1600 1600" style="enable-background:new 0 0 1600 1600;" xml:space="preserve">
<style type="text/css">
	.st0{opacity:0.1;fill:#C4E0EF;}
</style>
<polygon class="st0" points="0.3,663.3 800.1,799.8 0.3,522.4 "/>
<polygon class="st0" points="0.3,929.6 800.1,799.8 0.3,796.6 "/>
<polygon class="st0" points="0.3,1227.2 800.1,799.8 0.3,1070.1 "/>
<polygon class="st0" points="0.3,1599.7 54.6,1599.7 800.1,799.8 0.3,1415.1 "/>
<polygon class="st0" points="734.1,0 800.1,799.8 866.2,0 "/>
<polygon class="st0" points="450.4,0 800.1,799.8 598.1,0 "/>
<polygon class="st0" points="1015.8,0 800.1,799.8 1165.3,0 "/>
<polygon class="st0" points="1600,1084.4 800.1,799.8 1600,1243.8 "/>
<polygon class="st0" points="1600,809.4 800.1,799.8 1600,942.8 "/>
<polygon class="st0" points="1600,536.6 800.1,799.8 1600,676.5 "/>
<polygon class="st0" points="1600,194.7 800.1,799.8 1600,380.5 "/>
<polygon class="st0" points="1339.4,0 800.1,799.8 1557.5,0 "/>
<polygon class="st0" points="442.5,1599.7 800.1,799.8 270,1599.7 "/>
<polygon class="st0" points="727.5,1599.7 800.1,799.8 591.3,1599.7 "/>
<polygon class="st0" points="995.4,1599.7 800.1,799.8 859.8,1599.7 "/>
<polygon class="st0" points="1312,1599.7 800.1,799.8 1142.5,1599.7 "/>
<polygon class="st0" points="1600,1599.7 1600,1435.7 800.1,799.8 1522.1,1599.7 "/>
<polygon class="st0" points="66.8,0 800.1,799.8 279.3,0 "/>
<polygon class="st0" points="0.3,364 800.1,799.8 0.3,174.2 "/>
</svg>
